<svg xmlns="http://www.w3.org/2000/svg" width="100%" viewBox="0 0 680 250" role="img" aria-label="A single continuous thread runs along a horizontal membrane between a digital region above and a physical region below. At each station the thread spirals inward, weaving above and below the membrane, collapsing to a bullseye at the centre as resolution is reached, before continuing to the next station.">
  <style>
    .th { font: 600 13px system-ui, -apple-system, sans-serif; fill: #6b7280; }
    .ts { font: 400 11px system-ui, -apple-system, sans-serif; fill: #9ca3af; }
  </style>
  <defs>
    <marker id="arrow" viewBox="0 0 10 10" refX="8" refY="5" markerWidth="6" markerHeight="6" orient="auto-start-reverse"><path d="M2 1L8 5L2 9" fill="none" stroke="#7F77DD" stroke-width="1.5" stroke-linecap="round" stroke-linejoin="round"/></marker>
  </defs>
  <rect x="48" y="40" width="584" height="90" fill="#378ADD" opacity="0.06"/>
  <rect x="48" y="130" width="584" height="100" fill="#D85A30" opacity="0.06"/>
  <line x1="48" y1="130" x2="632" y2="130" stroke="#9ca3af" stroke-width="0.5" opacity="0.4"/>
  <path d="M 72 130 L 142 130 L 142.4 127.0 L 143.1 124.0 L 144.2 121.1 L 145.6 118.3 L 147.4 115.7 L 149.4 113.2 L 151.7 111.0 L 154.2 108.9 L 157.0 107.0 L 160.0 105.4 L 163.1 104.1 L 166.4 103.0 L 169.7 102.2 L 173.1 101.7 L 176.6 101.4 L 180.0 101.4 L 183.4 101.7 L 186.7 102.3 L 189.9 103.1 L 193.0 104.2 L 196.0 105.5 L 198.7 107.1 L 201.2 108.8 L 203.5 110.7 L 205.5 112.8 L 207.3 115.0 L 208.8 117.4 L 210.0 119.8 L 210.9 122.3 L 211.4 124.9 L 211.7 127.4 L 211.7 130.0 L 211.3 132.5 L 210.7 135.0 L 209.7 137.4 L 208.5 139.7 L 207.1 141.9 L 205.3 143.9 L 203.4 145.8 L 201.3 147.4 L 199.0 148.9 L 196.5 150.2 L 193.9 151.3 L 191.2 152.2 L 188.4 152.8 L 185.6 153.2 L 182.8 153.4 L 180.0 153.4 L 177.2 153.1 L 174.5 152.6 L 171.9 151.9 L 169.4 151.0 L 167.0 149.9 L 164.8 148.6 L 162.8 147.2 L 161.0 145.6 L 159.3 143.9 L 157.9 142.1 L 156.8 140.2 L 155.9 138.2 L 155.2 136.2 L 154.8 134.1 L 154.6 132.1 L 154.7 130.0 L 155.0 128.0 L 155.5 126.0 L 156.3 124.1 L 157.3 122.3 L 158.5 120.6 L 159.9 119.0 L 161.5 117.5 L 163.2 116.2 L 165.1 115.1 L 167.0 114.1 L 169.1 113.3 L 171.2 112.6 L 173.4 112.1 L 175.6 111.9 L 177.8 111.7 L 180.0 111.8 L 182.2 112.1 L 184.2 112.5 L 186.3 113.1 L 188.2 113.8 L 190.0 114.7 L 191.7 115.7 L 193.2 116.8 L 194.6 118.1 L 195.8 119.4 L 196.8 120.8 L 197.6 122.3 L 198.3 123.8 L 198.8 125.3 L 199.0 126.9 L 199.1 128.5 L 199.0 130.0 L 198.7 131.5 L 198.2 133.0 L 197.6 134.4 L 196.8 135.7 L 195.9 137.0 L 194.8 138.1 L 193.6 139.2 L 192.3 140.1 L 190.9 140.9 L 189.5 141.6 L 187.9 142.2 L 186.4 142.6 L 184.8 142.9 L 183.2 143.1 L 181.6 143.1 L 180.0 143.0 L 178.5 142.8 L 177.0 142.4 L 175.6 142.0 L 174.2 141.4 L 173.0 140.7 L 171.9 140.0 L 170.8 139.2 L 169.9 138.3 L 169.1 137.3 L 168.5 136.3 L 168.0 135.3 L 167.6 134.2 L 167.3 133.2 L 167.2 132.1 L 167.2 131.0 L 167.3 130.0 L 167.6 129.0 L 168.0 128.0 L 168.4 127.1 L 169.0 126.3 L 169.7 125.5 L 170.5 124.8 L 171.3 124.1 L 172.2 123.6 L 173.1 123.1 L 174.1 122.7 L 175.1 122.4 L 176.1 122.2 L 177.1 122.1 L 178.1 122.0 L 179.0 122.1 L 180.0 122.2 L 180.9 122.4 L 181.8 122.7 L 182.6 123.0 L 183.3 123.4 L 184.0 123.8 L 184.6 124.3 L 185.1 124.9 L 185.6 125.4 L 186.0 126.0 L 186.3 126.6 L 186.5 127.2 L 186.6 127.8 L 186.6 128.4 L 186.6 128.9 L 186.5 129.5 L 186.3 130.0 L 186.1 130.5 L 185.8 130.9 L 185.5 131.4 L 185.1 131.7 L 184.7 132.1 L 184.3 132.3 L 183.8 132.6 L 183.4 132.8 L 182.9 132.9 L 182.4 133.0 L 182.0 133.0 L 181.5 133.0 L 181.1 133.0 L 180.7 132.9 L 180.3 132.7 L 180.0 132.6 L 179.7 132.4 L 179.5 132.2 L 179.3 132.0 L 179.1 131.8 L 179.0 131.6 L 178.9 131.3 L 178.9 131.1 L 178.9 130.9 L 178.9 130.7 L 179.0 130.5 L 179.1 130.4 L 179.3 130.2 L 179.4 130.1 L 179.6 130.1 L 179.8 130.0 L 180.0 130.0 L 180 130 L 267 130 L 267.4 127.0 L 268.1 124.0 L 269.2 121.1 L 270.6 118.3 L 272.4 115.7 L 274.4 113.2 L 276.7 111.0 L 279.2 108.9 L 282.0 107.0 L 285.0 105.4 L 288.1 104.1 L 291.4 103.0 L 294.7 102.2 L 298.1 101.7 L 301.6 101.4 L 305.0 101.4 L 308.4 101.7 L 311.7 102.3 L 314.9 103.1 L 318.0 104.2 L 321.0 105.5 L 323.7 107.1 L 326.2 108.8 L 328.5 110.7 L 330.5 112.8 L 332.3 115.0 L 333.8 117.4 L 335.0 119.8 L 335.9 122.3 L 336.4 124.9 L 336.7 127.4 L 336.7 130.0 L 336.3 132.5 L 335.7 135.0 L 334.7 137.4 L 333.5 139.7 L 332.1 141.9 L 330.3 143.9 L 328.4 145.8 L 326.3 147.4 L 324.0 148.9 L 321.5 150.2 L 318.9 151.3 L 316.2 152.2 L 313.4 152.8 L 310.6 153.2 L 307.8 153.4 L 305.0 153.4 L 302.2 153.1 L 299.5 152.6 L 296.9 151.9 L 294.4 151.0 L 292.0 149.9 L 289.8 148.6 L 287.8 147.2 L 286.0 145.6 L 284.3 143.9 L 282.9 142.1 L 281.8 140.2 L 280.9 138.2 L 280.2 136.2 L 279.8 134.1 L 279.6 132.1 L 279.7 130.0 L 280.0 128.0 L 280.5 126.0 L 281.3 124.1 L 282.3 122.3 L 283.5 120.6 L 284.9 119.0 L 286.5 117.5 L 288.2 116.2 L 290.1 115.1 L 292.0 114.1 L 294.1 113.3 L 296.2 112.6 L 298.4 112.1 L 300.6 111.9 L 302.8 111.7 L 305.0 111.8 L 307.2 112.1 L 309.2 112.5 L 311.3 113.1 L 313.2 113.8 L 315.0 114.7 L 316.7 115.7 L 318.2 116.8 L 319.6 118.1 L 320.8 119.4 L 321.8 120.8 L 322.6 122.3 L 323.3 123.8 L 323.8 125.3 L 324.0 126.9 L 324.1 128.5 L 324.0 130.0 L 323.7 131.5 L 323.2 133.0 L 322.6 134.4 L 321.8 135.7 L 320.9 137.0 L 319.8 138.1 L 318.6 139.2 L 317.3 140.1 L 315.9 140.9 L 314.5 141.6 L 312.9 142.2 L 311.4 142.6 L 309.8 142.9 L 308.2 143.1 L 306.6 143.1 L 305.0 143.0 L 303.5 142.8 L 302.0 142.4 L 300.6 142.0 L 299.2 141.4 L 298.0 140.7 L 296.9 140.0 L 295.8 139.2 L 294.9 138.3 L 294.1 137.3 L 293.5 136.3 L 293.0 135.3 L 292.6 134.2 L 292.3 133.2 L 292.2 132.1 L 292.2 131.0 L 292.3 130.0 L 292.6 129.0 L 293.0 128.0 L 293.4 127.1 L 294.0 126.3 L 294.7 125.5 L 295.5 124.8 L 296.3 124.1 L 297.2 123.6 L 298.1 123.1 L 299.1 122.7 L 300.1 122.4 L 301.1 122.2 L 302.1 122.1 L 303.1 122.0 L 304.0 122.1 L 305.0 122.2 L 305.9 122.4 L 306.8 122.7 L 307.6 123.0 L 308.3 123.4 L 309.0 123.8 L 309.6 124.3 L 310.1 124.9 L 310.6 125.4 L 311.0 126.0 L 311.3 126.6 L 311.5 127.2 L 311.6 127.8 L 311.6 128.4 L 311.6 128.9 L 311.5 129.5 L 311.3 130.0 L 311.1 130.5 L 310.8 130.9 L 310.5 131.4 L 310.1 131.7 L 309.7 132.1 L 309.3 132.3 L 308.8 132.6 L 308.4 132.8 L 307.9 132.9 L 307.4 133.0 L 307.0 133.0 L 306.5 133.0 L 306.1 133.0 L 305.7 132.9 L 305.3 132.7 L 305.0 132.6 L 304.7 132.4 L 304.5 132.2 L 304.3 132.0 L 304.1 131.8 L 304.0 131.6 L 303.9 131.3 L 303.9 131.1 L 303.9 130.9 L 303.9 130.7 L 304.0 130.5 L 304.1 130.4 L 304.3 130.2 L 304.4 130.1 L 304.6 130.1 L 304.8 130.0 L 305.0 130.0 L 305 130 L 392 130 L 392.4 127.0 L 393.1 124.0 L 394.2 121.1 L 395.6 118.3 L 397.4 115.7 L 399.4 113.2 L 401.7 111.0 L 404.2 108.9 L 407.0 107.0 L 410.0 105.4 L 413.1 104.1 L 416.4 103.0 L 419.7 102.2 L 423.1 101.7 L 426.6 101.4 L 430.0 101.4 L 433.4 101.7 L 436.7 102.3 L 439.9 103.1 L 443.0 104.2 L 446.0 105.5 L 448.7 107.1 L 451.2 108.8 L 453.5 110.7 L 455.5 112.8 L 457.3 115.0 L 458.8 117.4 L 460.0 119.8 L 460.9 122.3 L 461.4 124.9 L 461.7 127.4 L 461.7 130.0 L 461.3 132.5 L 460.7 135.0 L 459.7 137.4 L 458.5 139.7 L 457.1 141.9 L 455.3 143.9 L 453.4 145.8 L 451.3 147.4 L 449.0 148.9 L 446.5 150.2 L 443.9 151.3 L 441.2 152.2 L 438.4 152.8 L 435.6 153.2 L 432.8 153.4 L 430.0 153.4 L 427.2 153.1 L 424.5 152.6 L 421.9 151.9 L 419.4 151.0 L 417.0 149.9 L 414.8 148.6 L 412.8 147.2 L 411.0 145.6 L 409.3 143.9 L 407.9 142.1 L 406.8 140.2 L 405.9 138.2 L 405.2 136.2 L 404.8 134.1 L 404.6 132.1 L 404.7 130.0 L 405.0 128.0 L 405.5 126.0 L 406.3 124.1 L 407.3 122.3 L 408.5 120.6 L 409.9 119.0 L 411.5 117.5 L 413.2 116.2 L 415.1 115.1 L 417.0 114.1 L 419.1 113.3 L 421.2 112.6 L 423.4 112.1 L 425.6 111.9 L 427.8 111.7 L 430.0 111.8 L 432.2 112.1 L 434.2 112.5 L 436.3 113.1 L 438.2 113.8 L 440.0 114.7 L 441.7 115.7 L 443.2 116.8 L 444.6 118.1 L 445.8 119.4 L 446.8 120.8 L 447.6 122.3 L 448.3 123.8 L 448.8 125.3 L 449.0 126.9 L 449.1 128.5 L 449.0 130.0 L 448.7 131.5 L 448.2 133.0 L 447.6 134.4 L 446.8 135.7 L 445.9 137.0 L 444.8 138.1 L 443.6 139.2 L 442.3 140.1 L 440.9 140.9 L 439.5 141.6 L 437.9 142.2 L 436.4 142.6 L 434.8 142.9 L 433.2 143.1 L 431.6 143.1 L 430.0 143.0 L 428.5 142.8 L 427.0 142.4 L 425.6 142.0 L 424.2 141.4 L 423.0 140.7 L 421.9 140.0 L 420.8 139.2 L 419.9 138.3 L 419.1 137.3 L 418.5 136.3 L 418.0 135.3 L 417.6 134.2 L 417.3 133.2 L 417.2 132.1 L 417.2 131.0 L 417.3 130.0 L 417.6 129.0 L 418.0 128.0 L 418.4 127.1 L 419.0 126.3 L 419.7 125.5 L 420.5 124.8 L 421.3 124.1 L 422.2 123.6 L 423.1 123.1 L 424.1 122.7 L 425.1 122.4 L 426.1 122.2 L 427.1 122.1 L 428.1 122.0 L 429.0 122.1 L 430.0 122.2 L 430.9 122.4 L 431.8 122.7 L 432.6 123.0 L 433.3 123.4 L 434.0 123.8 L 434.6 124.3 L 435.1 124.9 L 435.6 125.4 L 436.0 126.0 L 436.3 126.6 L 436.5 127.2 L 436.6 127.8 L 436.6 128.4 L 436.6 128.9 L 436.5 129.5 L 436.3 130.0 L 436.1 130.5 L 435.8 130.9 L 435.5 131.4 L 435.1 131.7 L 434.7 132.1 L 434.3 132.3 L 433.8 132.6 L 433.4 132.8 L 432.9 132.9 L 432.4 133.0 L 432.0 133.0 L 431.5 133.0 L 431.1 133.0 L 430.7 132.9 L 430.3 132.7 L 430.0 132.6 L 429.7 132.4 L 429.5 132.2 L 429.3 132.0 L 429.1 131.8 L 429.0 131.6 L 428.9 131.3 L 428.9 131.1 L 428.9 130.9 L 428.9 130.7 L 429.0 130.5 L 429.1 130.4 L 429.3 130.2 L 429.4 130.1 L 429.6 130.1 L 429.8 130.0 L 430.0 130.0 L 430 130 L 517 130 L 517.4 127.0 L 518.1 124.0 L 519.2 121.1 L 520.6 118.3 L 522.4 115.7 L 524.4 113.2 L 526.7 111.0 L 529.2 108.9 L 532.0 107.0 L 535.0 105.4 L 538.1 104.1 L 541.4 103.0 L 544.7 102.2 L 548.1 101.7 L 551.6 101.4 L 555.0 101.4 L 558.4 101.7 L 561.7 102.3 L 564.9 103.1 L 568.0 104.2 L 571.0 105.5 L 573.7 107.1 L 576.2 108.8 L 578.5 110.7 L 580.5 112.8 L 582.3 115.0 L 583.8 117.4 L 585.0 119.8 L 585.9 122.3 L 586.4 124.9 L 586.7 127.4 L 586.7 130.0 L 586.3 132.5 L 585.7 135.0 L 584.7 137.4 L 583.5 139.7 L 582.1 141.9 L 580.3 143.9 L 578.4 145.8 L 576.3 147.4 L 574.0 148.9 L 571.5 150.2 L 568.9 151.3 L 566.2 152.2 L 563.4 152.8 L 560.6 153.2 L 557.8 153.4 L 555.0 153.4 L 552.2 153.1 L 549.5 152.6 L 546.9 151.9 L 544.4 151.0 L 542.0 149.9 L 539.8 148.6 L 537.8 147.2 L 536.0 145.6 L 534.3 143.9 L 532.9 142.1 L 531.8 140.2 L 530.9 138.2 L 530.2 136.2 L 529.8 134.1 L 529.6 132.1 L 529.7 130.0 L 530.0 128.0 L 530.5 126.0 L 531.3 124.1 L 532.3 122.3 L 533.5 120.6 L 534.9 119.0 L 536.5 117.5 L 538.2 116.2 L 540.1 115.1 L 542.0 114.1 L 544.1 113.3 L 546.2 112.6 L 548.4 112.1 L 550.6 111.9 L 552.8 111.7 L 555.0 111.8 L 557.2 112.1 L 559.2 112.5 L 561.3 113.1 L 563.2 113.8 L 565.0 114.7 L 566.7 115.7 L 568.2 116.8 L 569.6 118.1 L 570.8 119.4 L 571.8 120.8 L 572.6 122.3 L 573.3 123.8 L 573.8 125.3 L 574.0 126.9 L 574.1 128.5 L 574.0 130.0 L 573.7 131.5 L 573.2 133.0 L 572.6 134.4 L 571.8 135.7 L 570.9 137.0 L 569.8 138.1 L 568.6 139.2 L 567.3 140.1 L 565.9 140.9 L 564.5 141.6 L 562.9 142.2 L 561.4 142.6 L 559.8 142.9 L 558.2 143.1 L 556.6 143.1 L 555.0 143.0 L 553.5 142.8 L 552.0 142.4 L 550.6 142.0 L 549.2 141.4 L 548.0 140.7 L 546.9 140.0 L 545.8 139.2 L 544.9 138.3 L 544.1 137.3 L 543.5 136.3 L 543.0 135.3 L 542.6 134.2 L 542.3 133.2 L 542.2 132.1 L 542.2 131.0 L 542.3 130.0 L 542.6 129.0 L 543.0 128.0 L 543.4 127.1 L 544.0 126.3 L 544.7 125.5 L 545.5 124.8 L 546.3 124.1 L 547.2 123.6 L 548.1 123.1 L 549.1 122.7 L 550.1 122.4 L 551.1 122.2 L 552.1 122.1 L 553.1 122.0 L 554.0 122.1 L 555.0 122.2 L 555.9 122.4 L 556.8 122.7 L 557.6 123.0 L 558.3 123.4 L 559.0 123.8 L 559.6 124.3 L 560.1 124.9 L 560.6 125.4 L 561.0 126.0 L 561.3 126.6 L 561.5 127.2 L 561.6 127.8 L 561.6 128.4 L 561.6 128.9 L 561.5 129.5 L 561.3 130.0 L 561.1 130.5 L 560.8 130.9 L 560.5 131.4 L 560.1 131.7 L 559.7 132.1 L 559.3 132.3 L 558.8 132.6 L 558.4 132.8 L 557.9 132.9 L 557.4 133.0 L 557.0 133.0 L 556.5 133.0 L 556.1 133.0 L 555.7 132.9 L 555.3 132.7 L 555.0 132.6 L 554.7 132.4 L 554.5 132.2 L 554.3 132.0 L 554.1 131.8 L 554.0 131.6 L 553.9 131.3 L 553.9 131.1 L 553.9 130.9 L 553.9 130.7 L 554.0 130.5 L 554.1 130.4 L 554.3 130.2 L 554.4 130.1 L 554.6 130.1 L 554.8 130.0 L 555.0 130.0 L 555 130 L 628 130" fill="none" stroke="#7F77DD" stroke-width="1.8" stroke-linecap="round" stroke-linejoin="round" marker-end="url(#arrow)"/>
  <circle cx="180" cy="130" r="10" fill="none" stroke="#1D9E75" stroke-width="1.3"/>
  <circle cx="180" cy="130" r="5" fill="#1D9E75"/>
  <circle cx="305" cy="130" r="10" fill="none" stroke="#1D9E75" stroke-width="1.3"/>
  <circle cx="305" cy="130" r="5" fill="#1D9E75"/>
  <circle cx="430" cy="130" r="10" fill="none" stroke="#1D9E75" stroke-width="1.3"/>
  <circle cx="430" cy="130" r="5" fill="#1D9E75"/>
  <circle cx="555" cy="130" r="10" fill="none" stroke="#1D9E75" stroke-width="1.3"/>
  <circle cx="555" cy="130" r="5" fill="#1D9E75"/>
  
  <text class="th" x="180" y="178" text-anchor="middle">Grinding</text>
  <text class="th" x="305" y="178" text-anchor="middle">Gluing</text>
  <text class="th" x="430" y="178" text-anchor="middle">Finishing</text>
  <text class="th" x="555" y="178" text-anchor="middle">QA</text>
  <text class="th" x="60" y="64">Digital</text>
  <text class="ts" x="60" y="82">bits propose</text>
  <text class="th" x="60" y="204">Physical</text>
  <text class="ts" x="60" y="222">reality answers</text>
  <text class="ts" x="598" y="122">time</text>
</svg>
